<svg width="24" height="24" viewBox="0 0 24 24" fill="none" xmlns="http://www.w3.org/2000/svg">
<path d="M5.025 20.775C4.99074 20.9217 4.99012 21.0742 5.02319 21.2212C5.05627 21.3681 5.12218 21.5057 5.21598 21.6235C5.30978 21.7414 5.42904 21.8365 5.56482 21.9017C5.7006 21.9669 5.84937 22.0005 6 22C6.19753 22.0001 6.39065 21.9416 6.555 21.832L12 18.202L17.445 21.832C17.6153 21.9451 17.8162 22.0033 18.0206 21.9988C18.225 21.9944 18.4232 21.9274 18.5884 21.8069C18.7536 21.6865 18.878 21.5183 18.9448 21.3251C19.0116 21.1318 19.0176 20.9228 18.962 20.726L17.133 14.326L21.669 10.244C21.8143 10.1132 21.918 9.94268 21.9674 9.75353C22.0168 9.56437 22.0097 9.3649 21.9469 9.17976C21.8841 8.99462 21.7684 8.83194 21.6142 8.71184C21.4599 8.59174 21.2739 8.51949 21.079 8.50401L15.378 8.05001L12.911 2.58901C12.8324 2.41313 12.7046 2.26374 12.543 2.15887C12.3814 2.05401 12.193 1.99815 12.0003 1.99805C11.8077 1.99794 11.6191 2.05359 11.4574 2.15828C11.2957 2.26296 11.1678 2.41221 11.089 2.58801L8.622 8.05001L2.921 8.50301C2.72945 8.51819 2.54633 8.58822 2.39355 8.70475C2.24077 8.82127 2.12479 8.97934 2.05949 9.16004C1.99419 9.34075 1.98233 9.53645 2.02534 9.72372C2.06835 9.91099 2.1644 10.0819 2.302 10.216L6.516 14.323L5.025 20.775ZM12 5.42901L14.042 9.95001L14.63 9.99701H14.631L18.603 10.312L15.332 13.256L15.331 13.258L14.868 13.674L15.039 14.271V14.274L16.292 18.659L12 15.798V5.42901Z" fill="#FFE600"/>
</svg>
