<svg width="45" height="45" viewBox="0 0 45 45" fill="none" xmlns="http://www.w3.org/2000/svg">
<path d="M32.7094 16.1649C31.6621 15.7863 30.5562 15.5954 29.4427 15.6009C25.8469 15.6009 23.3058 17.4178 23.2903 20.018C23.2608 21.9291 25.0917 23.0063 26.4755 23.6503C27.8972 24.3099 28.3725 24.7205 28.3655 25.3055C28.3584 26.2069 27.2292 26.6091 26.19 26.6091C24.7458 26.6091 23.9625 26.4122 22.7545 25.9059L22.3059 25.6936L21.7941 28.6974C22.673 29.0559 24.248 29.3709 25.8736 29.4005C29.7042 29.4005 32.2017 27.5991 32.2298 24.8217C32.2594 23.2988 31.2792 22.1428 29.1909 21.1894C27.9309 20.5749 27.142 20.1558 27.142 19.5258C27.142 18.9689 27.8156 18.3839 29.2219 18.3839C30.1551 18.3605 31.0829 18.5325 31.9458 18.8888L32.2903 19.042L32.7952 16.1494L32.7094 16.1649ZM42.0567 15.8499H39.2442C38.3653 15.8499 37.7128 16.0847 37.3247 16.9566L31.9191 29.2092H35.7427L36.5133 27.2025L41.1778 27.2095C41.2945 27.6778 41.6236 29.2078 41.6236 29.2078H45L42.0567 15.8499ZM18.1125 15.7402H21.7533L19.4752 29.1052H15.8344L18.1125 15.7331V15.7402ZM8.85516 23.1005L9.22781 24.9609L12.7941 15.8499H16.6542L10.9111 29.1867H7.06781L3.91781 17.8931C3.89368 17.7993 3.85068 17.7114 3.79145 17.6348C3.73221 17.5581 3.65798 17.4944 3.57328 17.4474C2.44179 16.8589 1.24148 16.4134 0 16.1213L0.0435937 15.8414H5.9175C6.70922 15.8709 7.35328 16.1213 7.57266 16.9706L8.85516 23.1075V23.1005ZM37.5511 24.4702L39.0094 20.7281C38.9869 20.7633 39.3089 19.9589 39.4917 19.4527L39.7406 20.6016L40.5844 24.4617H37.5511V24.4702Z" fill="#151515"/>
</svg>
