<svg width="45" height="45" viewBox="0 0 45 45" fill="none" xmlns="http://www.w3.org/2000/svg">
<g clip-path="url(#clip0_15_253)">
<path d="M11.6016 14.6742L8.55703 15.3211L8.54297 25.3336C8.54297 27.1828 9.93516 28.3781 11.7844 28.3781C12.8109 28.3781 13.5633 28.1883 13.9781 27.9633V25.5867C13.5773 25.7484 11.6086 26.325 11.6086 24.4828V20.0391H13.9781V17.3812H11.6086L11.6016 14.6742ZM17.8664 18.3023L17.6766 17.3812H14.9766V28.1531H18.0914V20.9039C18.8297 19.9336 20.0742 20.1234 20.475 20.25V17.3812C20.0531 17.2336 18.5977 16.9594 17.8664 18.3023ZM24.3563 13.2188L21.2203 13.8867V16.432L24.3563 15.7641V13.2188ZM3.15703 20.5523C3.15703 20.0672 3.56485 19.8773 4.21875 19.8703C5.16797 19.8703 6.37735 20.1586 7.32657 20.6719V17.7328C6.33863 17.3474 5.2862 17.1541 4.22578 17.1633C1.69453 17.1633 0.0070343 18.4852 0.0070343 20.693C0.0070343 24.1523 4.75313 23.5898 4.75313 25.0805C4.75313 25.657 4.25391 25.8469 3.55782 25.8469C2.52422 25.8469 1.18828 25.418 0.140628 24.8484V27.6609C1.30078 28.1602 2.475 28.3711 3.55078 28.3711C6.14532 28.3711 7.93125 27.2602 7.93125 25.0102C7.93125 21.2906 3.15703 21.9586 3.15703 20.5523ZM45 22.8938C45 19.6945 43.4531 17.1703 40.4859 17.1703C37.5188 17.1703 35.7117 19.6945 35.7117 22.8727C35.7117 26.6344 37.8422 28.3711 40.8797 28.3711C42.3703 28.3711 43.4883 28.0336 44.3391 27.5625V25.2141C43.4883 25.643 42.5109 25.9031 41.2734 25.9031C40.057 25.9031 38.9883 25.4742 38.8477 24.0117H44.9578C44.9719 23.85 45 23.1961 45 22.8938ZM38.8195 21.7125C38.8195 20.3063 39.6844 19.7156 40.4648 19.7156C41.2313 19.7156 42.0469 20.3063 42.0469 21.7125H38.8195ZM30.8813 17.1703C29.6578 17.1703 28.8703 17.7469 28.4344 18.1477L28.2727 17.3742H25.5234V31.7742L28.6453 31.1133L28.6523 27.5836C29.1023 27.9141 29.7703 28.3711 30.8602 28.3711C33.0961 28.3711 35.1352 26.7398 35.1352 22.7742C35.1422 19.1461 33.075 17.1703 30.8813 17.1703ZM30.1359 25.7836C29.4047 25.7836 28.9688 25.5164 28.6664 25.193L28.6453 20.5523C28.9688 20.1938 29.4188 19.9336 30.1359 19.9336C31.275 19.9336 32.0625 21.2133 32.0625 22.8445C32.0695 24.525 31.2961 25.7836 30.1359 25.7836ZM21.2273 28.1531H24.3633V17.3812H21.2273V28.1531Z" fill="#151515"/>
</g>
<defs>
<clipPath id="clip0_15_253">
<rect width="45" height="45" fill="white"/>
</clipPath>
</defs>
</svg>
