<svg width="45" height="24" viewBox="0 0 45 24" fill="none" xmlns="http://www.w3.org/2000/svg">
<g clip-path="url(#clip0_15_259)">
<path d="M42 24H3C2.20435 24 1.44129 23.7471 0.87868 23.2971C0.316071 22.847 0 22.2365 0 21.6L0 2.4C0 1.76348 0.316071 1.15303 0.87868 0.702944C1.44129 0.252856 2.20435 0 3 0L42 0C42.7956 0 43.5587 0.252856 44.1213 0.702944C44.6839 1.15303 45 1.76348 45 2.4V21.6C45 22.2365 44.6839 22.847 44.1213 23.2971C43.5587 23.7471 42.7956 24 42 24ZM17.54 10.325C17.5058 10.3254 17.4721 10.3318 17.4414 10.3439C17.4107 10.3561 17.3837 10.3735 17.3625 10.395C17.3133 10.4351 17.2851 10.4888 17.2837 10.545C17.2837 10.566 17.4062 10.865 17.6688 11.478L18.2362 12.804L18.5 13.422C18.7958 14.1153 18.9504 14.484 18.9637 14.528C18.3818 15.1044 17.8557 15.7155 17.39 16.356L17.3425 16.426L17.34 16.451C17.34 16.551 17.4412 16.633 17.5675 16.633L17.6012 16.631H17.6H19.1225C19.1935 16.6307 19.2632 16.6159 19.3251 16.5881C19.3869 16.5603 19.439 16.5203 19.4762 16.472L19.4775 16.471L24.5175 10.652C24.544 10.6241 24.5585 10.5901 24.5588 10.555L24.5575 10.54V10.541C24.5558 10.4849 24.5277 10.4313 24.4788 10.391C24.4577 10.3696 24.431 10.3522 24.4005 10.3401C24.37 10.328 24.3365 10.3214 24.3025 10.321H22.7787C22.7076 10.3214 22.6377 10.3361 22.5757 10.3639C22.5136 10.3917 22.4613 10.4317 22.4237 10.48L22.4225 10.481L20.3225 12.947L19.4538 10.575C19.4315 10.5027 19.3796 10.4385 19.3065 10.3925C19.2333 10.3464 19.1431 10.3213 19.05 10.321L19.0175 10.322H19.0187L17.54 10.325ZM35.0125 10.214H34.98C34.0325 10.214 33.1813 10.543 32.5938 11.065L32.5913 11.067C31.9487 11.5986 31.59 12.3095 31.5913 13.049V13.076V13.075C31.5888 13.104 31.5887 13.139 31.5887 13.173C31.5887 13.71 31.85 14.199 32.275 14.562L32.2738 14.561C32.5155 14.7494 32.8033 14.8958 33.119 14.9911C33.4348 15.0865 33.7717 15.1286 34.1087 15.115H34.1025C34.5238 15.111 34.9238 15.042 35.2887 14.918L35.2687 14.924C35.6375 14.813 35.95 14.64 36.1963 14.42L36.1987 14.418C36.1862 14.475 36.1725 14.523 36.1562 14.569L36.1587 14.559C36.1364 14.6202 36.123 14.6833 36.1188 14.747V14.749C36.1188 14.917 36.205 15.002 36.3763 15.002H37.74C37.7933 15.0058 37.8469 15.0011 37.8978 14.988C37.9488 14.975 37.9959 14.9539 38.0364 14.926C38.077 14.8981 38.1101 14.864 38.1339 14.8257C38.1577 14.7874 38.1717 14.7457 38.175 14.703V14.702L38.985 10.575C38.9926 10.5439 38.9913 10.5117 38.9811 10.4811C38.971 10.4504 38.9522 10.422 38.9263 10.398C38.9038 10.3732 38.8742 10.3531 38.8401 10.3391C38.806 10.3252 38.7683 10.318 38.73 10.318H37.2262C37.0425 10.318 36.9263 10.493 36.8887 10.84C36.6687 10.6141 36.3794 10.4377 36.0488 10.3278C35.7183 10.218 35.3578 10.1784 35.0025 10.213L35.0125 10.212V10.214ZM12.5588 10.214H12.5238C11.5775 10.214 10.7262 10.543 10.1412 11.065L10.1388 11.067C9.4962 11.5986 9.13754 12.3095 9.13875 13.049V13.076V13.075C9.12219 13.3468 9.17432 13.6185 9.29202 13.8738C9.40971 14.1292 9.59056 14.3629 9.82375 14.561L9.8225 14.56C10.265 14.904 10.87 15.116 11.5375 15.116L11.6575 15.114H11.6512C12.0662 15.109 12.46 15.04 12.8188 14.917L12.7987 14.923C13.1725 14.809 13.49 14.637 13.7463 14.418L13.7475 14.417C13.7013 14.515 13.6725 14.629 13.6688 14.747V14.749C13.6688 14.917 13.7562 15.002 13.9262 15.002H15.2887C15.342 15.0058 15.3957 15.0011 15.4466 14.988C15.4975 14.975 15.5446 14.9539 15.5852 14.926C15.6257 14.8981 15.6589 14.864 15.6827 14.8257C15.7065 14.7874 15.7205 14.7457 15.7238 14.703V14.702L16.535 10.575C16.5418 10.5441 16.54 10.5124 16.5296 10.4821C16.5192 10.4518 16.5006 10.4238 16.475 10.4C16.4525 10.3752 16.423 10.3551 16.3889 10.3411C16.3548 10.3272 16.317 10.32 16.2787 10.32H14.775C14.5912 10.32 14.475 10.495 14.4387 10.842C14.2164 10.6179 13.9266 10.4428 13.5964 10.3329C13.2662 10.2231 12.9066 10.1822 12.5513 10.214L12.5612 10.213L12.5588 10.214ZM40.765 8L40.745 7.999C40.6853 7.99883 40.6278 8.01664 40.5838 8.04888C40.5397 8.08112 40.5125 8.12543 40.5075 8.173V8.174L39.2225 14.752C39.212 14.7837 39.2118 14.817 39.2221 14.8487C39.2324 14.8804 39.2528 14.9094 39.2812 14.933C39.3049 14.9554 39.3344 14.9734 39.3676 14.9856C39.4009 14.9979 39.4371 15.0042 39.4738 15.004H40.7863L40.8262 15.006C40.9257 15.006 41.0211 14.9744 41.0914 14.9181C41.1617 14.8619 41.2012 14.7856 41.2012 14.706V14.704L42.4837 8.239L42.485 8.217C42.4849 8.15998 42.4617 8.10453 42.4188 8.059V8.06C42.3963 8.04084 42.3692 8.02555 42.3391 8.01506C42.309 8.00458 42.2766 7.99911 42.2437 7.999L42.225 8H42.2262H40.765ZM26.1775 8C26.1238 7.99437 26.0693 7.99785 26.0174 8.01022C25.9656 8.02258 25.9176 8.04356 25.8765 8.07177C25.8355 8.09998 25.8023 8.1348 25.7792 8.17395C25.7561 8.21311 25.7436 8.25572 25.7425 8.299L24.4587 14.751C24.4521 14.7817 24.454 14.8131 24.4641 14.8432C24.4743 14.8732 24.4925 14.9012 24.5175 14.925C24.5396 14.9499 24.5688 14.9701 24.6028 14.9841C24.6367 14.998 24.6744 15.0052 24.7125 15.005H26.3438C26.417 15.005 26.4879 14.9846 26.5444 14.9474C26.6009 14.9102 26.6396 14.8584 26.6537 14.801V14.799L27.01 12.965C27.0206 12.8847 27.0705 12.811 27.1488 12.76H27.15C27.2353 12.7049 27.3377 12.6693 27.4463 12.657H27.45C27.5512 12.642 27.6675 12.634 27.7863 12.633H27.7875C27.8925 12.633 28.0175 12.638 28.1625 12.649C28.321 12.6636 28.4805 12.6703 28.64 12.669C29.5558 12.6702 30.4383 12.394 31.11 11.896L31.1075 11.898C31.4424 11.6138 31.7011 11.2778 31.8675 10.9106C32.0339 10.5434 32.1045 10.1529 32.075 9.763V9.771C32.1019 9.51318 32.0466 9.25411 31.9144 9.01802C31.7821 8.78193 31.5772 8.57652 31.3188 8.421L31.3138 8.418C30.7173 8.11625 30.0185 7.96986 29.3138 7.999H29.3213L26.1775 8ZM3.7 8C3.64771 7.99551 3.59483 7.99987 3.54478 8.0128C3.49473 8.02573 3.44865 8.04693 3.40951 8.07503C3.37037 8.10314 3.33906 8.13751 3.31761 8.17592C3.29616 8.21434 3.28505 8.25593 3.285 8.298V8.3L2 14.752C1.9933 14.7827 1.99509 14.8142 2.00524 14.8442C2.01539 14.8743 2.03365 14.9022 2.05875 14.926C2.08083 14.9509 2.11008 14.9711 2.14403 14.9851C2.17797 14.999 2.21561 15.0062 2.25375 15.006H3.75875C3.81241 15.0116 3.86694 15.0082 3.91881 14.9958C3.97067 14.9834 4.01869 14.9624 4.05973 14.9342C4.10078 14.906 4.13393 14.8712 4.15702 14.832C4.18011 14.7929 4.19263 14.7503 4.19375 14.707L4.55 12.968C4.56083 12.888 4.61014 12.8145 4.6875 12.763H4.68875C4.77404 12.7079 4.87642 12.6723 4.985 12.66H4.98875C5.09936 12.6444 5.21143 12.6364 5.32375 12.636H5.325C5.43 12.636 5.555 12.641 5.7 12.652C5.85808 12.6665 6.01714 12.6732 6.17625 12.672C7.13 12.672 7.9975 12.379 8.6475 11.899L8.645 11.901C8.97983 11.6168 9.23839 11.2807 9.40478 10.9136C9.57117 10.5464 9.64186 10.1558 9.6125 9.766V9.774C9.6394 9.51618 9.58414 9.25711 9.45189 9.02102C9.31963 8.78492 9.1147 8.57952 8.85625 8.424L8.85125 8.421C8.25737 8.12036 7.56197 7.97369 6.86 8.001H6.8675L3.7 8ZM34.93 13.835L34.87 13.836C34.5506 13.8362 34.2415 13.7459 33.9975 13.581L34 13.582C33.8872 13.4989 33.7972 13.3979 33.7356 13.2855C33.6741 13.1731 33.6424 13.0517 33.6425 12.929L33.6438 12.884V12.857C33.6438 12.483 33.8325 12.144 34.1388 11.898C34.44 11.651 34.86 11.498 35.325 11.498H35.3662H35.3638L35.4062 11.497C35.7425 11.497 36.0488 11.596 36.2838 11.759L36.2825 11.758C36.3986 11.844 36.4911 11.9482 36.5544 12.0642C36.6176 12.1802 36.6502 12.3054 36.65 12.432L36.6488 12.48V12.478V12.502C36.6488 12.871 36.4575 13.205 36.1488 13.442C35.9928 13.5663 35.8078 13.6648 35.6042 13.7319C35.4007 13.799 35.1826 13.8333 34.9625 13.833H34.9313H34.9325L34.93 13.835ZM12.4563 13.835L12.3938 13.836C12.0662 13.836 11.765 13.74 11.535 13.581L11.5363 13.582C11.4263 13.4979 11.3389 13.3969 11.2791 13.285C11.2194 13.1731 11.1887 13.0527 11.1888 12.931L11.19 12.884V12.857C11.19 12.483 11.3787 12.144 11.685 11.898C11.9862 11.651 12.405 11.498 12.87 11.498H12.9138H12.9113L12.9537 11.497C13.29 11.497 13.5962 11.596 13.8312 11.759L13.83 11.758C13.9458 11.8439 14.038 11.9481 14.1011 12.0639C14.1641 12.1797 14.1965 12.3047 14.1963 12.431L14.195 12.48V12.478V12.513C14.195 12.882 14.0038 13.214 13.695 13.451C13.3746 13.6977 12.9471 13.8353 12.5025 13.835H12.4575H12.46H12.4563ZM27.34 11.275L27.6763 9.584C27.6789 9.5591 27.6877 9.53487 27.7021 9.5127C27.7165 9.49052 27.7362 9.47084 27.7601 9.45477C27.7841 9.4387 27.8117 9.42656 27.8415 9.41905C27.8713 9.41154 27.9026 9.4088 27.9338 9.411H27.9325H28.2887L28.365 9.41C28.5812 9.41 28.795 9.422 29.0037 9.445L28.98 9.443C29.1737 9.471 29.3425 9.541 29.475 9.641C29.5505 9.69809 29.6106 9.76692 29.6517 9.84328C29.6927 9.91963 29.7139 10.0019 29.7137 10.085L29.7125 10.123V10.121C29.7388 10.2881 29.713 10.4577 29.6376 10.6149C29.5621 10.7721 29.4393 10.9119 29.28 11.022L29.2788 11.023C28.8804 11.2049 28.4238 11.2884 27.9662 11.263H27.9737L27.3425 11.279L27.34 11.275ZM4.86625 11.275L5.2025 9.584C5.20501 9.55906 5.21369 9.53476 5.22803 9.51252C5.24238 9.49028 5.2621 9.47054 5.28605 9.45445C5.31001 9.43835 5.33772 9.42622 5.36758 9.41877C5.39744 9.41131 5.42885 9.40867 5.46 9.411H5.45875H5.83375C6.23396 9.38754 6.63458 9.45185 6.9925 9.597L6.98 9.592C7.21625 9.713 7.29625 9.97 7.2175 10.358C7.21147 10.5029 7.16198 10.6444 7.07323 10.7708C6.98447 10.8971 6.85903 11.0046 6.7075 11.084L6.70375 11.086C6.11128 11.2605 5.47691 11.3248 4.84875 11.274L4.86625 11.275Z" fill="#151515"/>
</g>
<defs>
<clipPath id="clip0_15_259">
<rect width="45" height="24" fill="white"/>
</clipPath>
</defs>
</svg>
