<svg width="36" height="24" viewBox="0 0 36 24" fill="none" xmlns="http://www.w3.org/2000/svg">
<g clip-path="url(#clip0_15_261)">
<path d="M33.6 24H2.4C1.76348 24 1.15303 23.7471 0.702944 23.297C0.252856 22.8469 0 22.2365 0 21.6L0 11.504H1.729L2.119 10.56H2.992L3.381 11.5H6.783V10.785L7.087 11.505H8.853L9.157 10.773V11.503H17.61V9.95895H17.77C17.884 9.96295 17.917 9.97295 17.917 10.163V11.505H22.29V11.146C22.737 11.373 23.264 11.506 23.823 11.506L23.918 11.505H23.913H25.753L26.147 10.565H27.02L27.405 11.505H30.951V10.611L31.487 11.505H34.323V5.60095H31.516V6.29795L31.123 5.60095H28.237V6.29795L27.876 5.60095H23.979C23.3886 5.57112 22.8003 5.69263 22.27 5.95395L22.291 5.94495V5.60095H19.603V5.94495C19.2776 5.68851 18.8667 5.56583 18.454 5.60195H18.46H8.637L7.978 7.12695L7.301 5.60195H4.207V6.29895L3.866 5.60195H1.226L0.003 8.40195V2.40195C0.003 1.76543 0.255856 1.15498 0.705944 0.704897C1.15603 0.25481 1.76648 0.00195313 2.403 0.00195312H33.603C34.2395 0.00195313 34.85 0.25481 35.3001 0.704897C35.7501 1.15498 36.003 1.76543 36.003 2.40195V12.882H34.13C34.1 12.88 34.064 12.88 34.029 12.88C33.595 12.88 33.192 13.01 32.856 13.233L32.864 13.228V12.882H30.094C29.6612 12.858 29.2331 12.981 28.879 13.231L28.885 13.227V12.881H23.939V13.227C23.5341 12.9986 23.0768 12.8794 22.612 12.881H22.573H22.575H19.312V13.227C18.8857 12.9539 18.3798 12.8323 17.876 12.882L17.885 12.881H14.234L13.398 13.785L12.616 12.881H7.162V18.789H12.514L13.375 17.871L14.186 18.789H17.485V17.406H17.945C18.3873 17.4232 18.8284 17.3494 19.241 17.189L19.219 17.197V18.791H21.939V17.252H22.07C22.236 17.252 22.253 17.258 22.253 17.426V18.792H30.519L30.62 18.794C31.094 18.794 31.536 18.652 31.904 18.409L31.895 18.414V18.792H34.517L34.642 18.794C35.133 18.794 35.6 18.693 36.024 18.51L36.001 18.519V21.601C36.001 22.2375 35.7481 22.8479 35.2981 23.298C34.848 23.7481 34.2375 24.001 33.601 24.001L33.6 24ZM21.105 17.961H20.087V13.726H22.423C22.8449 13.6868 23.2697 13.7578 23.656 13.932L23.64 13.926C23.953 14.098 24.162 14.426 24.162 14.802L24.16 14.869V14.866L24.161 14.904C24.161 15.39 23.868 15.808 23.448 15.99L23.44 15.993C23.641 16.065 23.809 16.188 23.934 16.347L23.936 16.349C24.0772 16.5827 24.1363 16.8568 24.104 17.128L24.105 17.122V17.96H23.089V17.43C23.1371 17.1414 23.0792 16.8452 22.926 16.596L22.929 16.601C22.8234 16.5208 22.7027 16.4629 22.5742 16.4308C22.4456 16.3987 22.3118 16.3929 22.181 16.414L22.187 16.413H21.105V17.96V17.961ZM21.105 14.601V15.552H22.335C22.5087 15.568 22.6835 15.5369 22.841 15.462L22.835 15.465C22.8993 15.4234 22.9523 15.3664 22.989 15.2992C23.0256 15.2319 23.0449 15.1566 23.045 15.08L23.044 15.057V15.058C23.049 14.9815 23.0321 14.9053 22.9955 14.838C22.9589 14.7707 22.9039 14.7152 22.837 14.678L22.835 14.677C22.6832 14.6091 22.5165 14.5815 22.351 14.597H22.355L21.105 14.601ZM12.08 17.96H8.073V13.726H12.143L13.388 15.114L14.675 13.726H17.908C19.056 13.726 19.614 14.183 19.614 15.121C19.614 16.076 19.037 16.54 17.854 16.54H16.589V17.959H14.622L13.376 16.56L12.081 17.96H12.08ZM15.581 14.18L14.027 15.85L15.581 17.574V14.18ZM9.082 16.235V17.077H11.57L12.72 15.835L11.614 14.601H9.081V15.371H11.303V16.234L9.082 16.235ZM16.589 14.602V15.68H17.896C18.296 15.68 18.526 15.476 18.526 15.12C18.526 14.78 18.312 14.601 17.907 14.601L16.589 14.602ZM34.627 17.962H32.673V17.052H34.619C34.7646 17.072 34.9123 17.0339 35.03 16.946L35.029 16.947C35.0666 16.9121 35.0965 16.8699 35.117 16.8229C35.1375 16.7759 35.148 16.7252 35.148 16.674V16.671V16.658C35.1481 16.6073 35.1371 16.5573 35.1159 16.5114C35.0946 16.4654 35.0636 16.4247 35.025 16.392C34.9215 16.3172 34.7939 16.2836 34.667 16.298H34.669L34.482 16.292C33.568 16.268 32.533 16.24 32.533 14.987C32.533 14.377 32.915 13.726 33.984 13.726H36.001V14.628H34.156C34.0135 14.612 33.8695 14.6407 33.744 14.71L33.748 14.708C33.6986 14.7404 33.6589 14.7856 33.6331 14.8388C33.6072 14.8919 33.5961 14.9511 33.601 15.01V15.009V15.02C33.601 15.0873 33.6223 15.153 33.6618 15.2076C33.7013 15.2622 33.757 15.3029 33.821 15.324L33.823 15.325C33.9498 15.364 34.0825 15.3803 34.215 15.373H34.212L34.761 15.387C35.1748 15.3457 35.5883 15.4689 35.912 15.73L35.909 15.728C35.939 15.752 35.965 15.778 35.988 15.807L35.989 15.808L36.001 17.42C35.8328 17.6165 35.6189 17.7686 35.3781 17.8629C35.1372 17.9573 34.8769 17.9909 34.62 17.961L34.627 17.962ZM30.678 17.962H28.706V17.052H30.668C30.8148 17.0712 30.9634 17.0332 31.083 16.946L31.081 16.947C31.1183 16.912 31.1481 16.8697 31.1684 16.8227C31.1887 16.7758 31.1991 16.7251 31.199 16.674V16.671V16.664C31.199 16.6125 31.188 16.5616 31.1668 16.5147C31.1455 16.4678 31.1146 16.426 31.076 16.392C30.9707 16.3171 30.8414 16.2836 30.713 16.298H30.715L30.529 16.292C29.618 16.268 28.584 16.24 28.584 14.987C28.584 14.377 28.964 13.726 30.031 13.726H32.059V14.628H30.203C30.0615 14.6122 29.9185 14.6408 29.794 14.71L29.798 14.708C29.7455 14.7441 29.7037 14.7938 29.677 14.8517C29.6504 14.9096 29.6399 14.9737 29.6467 15.0371C29.6534 15.1005 29.6772 15.1609 29.7155 15.2119C29.7537 15.263 29.805 15.3027 29.864 15.327L29.866 15.328C29.9944 15.3673 30.1289 15.3836 30.263 15.376H30.26L30.805 15.39C31.221 15.3499 31.6363 15.4732 31.963 15.734L31.96 15.731C32.0699 15.8521 32.1535 15.9947 32.2054 16.1498C32.2574 16.3049 32.2767 16.4691 32.262 16.632V16.627C32.265 17.51 31.73 17.96 30.675 17.96L30.678 17.962ZM28.1 17.962H24.72V13.725H28.097V14.6H25.73V15.37H28.042V16.233H25.73V17.075L28.1 17.079V17.959V17.962ZM30.07 10.676H28.009L27.615 9.73195H25.513L25.131 10.676H23.947C23.4153 10.704 22.8917 10.5365 22.475 10.205L22.48 10.208C22.282 9.98947 22.1318 9.73213 22.0388 9.45234C21.9458 9.17256 21.9122 8.87647 21.94 8.58295L21.939 8.59095C21.9132 8.29203 21.9485 7.991 22.0428 7.70615C22.137 7.4213 22.2881 7.15858 22.487 6.93395L22.485 6.93595C22.695 6.75234 22.9405 6.6139 23.2063 6.52926C23.4721 6.44462 23.7525 6.41558 24.03 6.44395L24.022 6.44295H25.002V7.34595H24.042C23.9015 7.32786 23.7588 7.34097 23.624 7.38436C23.4891 7.42774 23.3656 7.50033 23.262 7.59695L23.263 7.59595C23.0492 7.86976 22.9454 8.21358 22.972 8.55995V8.55495C22.9401 8.91082 23.0401 9.26599 23.253 9.55295L23.25 9.54895C23.4488 9.71142 23.7033 9.78966 23.959 9.76695H23.955H24.409L25.84 6.43695H27.36L29.073 10.437V6.43695H30.614L32.392 9.38495V6.43695H33.432V10.669H31.988L30.068 7.49095V10.669L30.07 10.676ZM26.571 7.15795L25.874 8.84595H27.271L26.571 7.15795ZM16.772 10.674H15.76V6.43995H18.088C18.513 6.39586 18.9419 6.4681 19.329 6.64895L19.314 6.64295C19.4696 6.72902 19.5994 6.85519 19.6898 7.00836C19.7802 7.16153 19.8279 7.3361 19.828 7.51395L19.826 7.58395V7.58095V7.61195C19.8261 7.84291 19.7595 8.06898 19.6343 8.26303C19.509 8.45708 19.3305 8.61088 19.12 8.70595L19.112 8.70895C19.313 8.78495 19.482 8.90695 19.611 9.06295L19.613 9.06495C19.7557 9.29953 19.8146 9.57557 19.78 9.84795L19.781 9.84195V10.673H18.76L18.756 10.139V10.059C18.7923 9.79785 18.7346 9.53234 18.593 9.30995L18.596 9.31495C18.4901 9.23714 18.3698 9.18109 18.2421 9.15002C18.1144 9.11895 17.9818 9.11349 17.852 9.13395L17.858 9.13295H16.773V10.673L16.772 10.674ZM16.772 7.32095V8.26095H18C18.1735 8.27977 18.3487 8.24854 18.505 8.17095L18.5 8.17295C18.5641 8.13401 18.617 8.07925 18.6538 8.01393C18.6906 7.9486 18.7099 7.87492 18.71 7.79995L18.709 7.77195V7.77295C18.7141 7.69697 18.6968 7.62116 18.6593 7.55487C18.6218 7.48859 18.5657 7.43474 18.498 7.39995L18.496 7.39895C18.3438 7.33366 18.1781 7.30621 18.013 7.31895H18.016L16.772 7.32095ZM6.056 10.674H4L3.611 9.72995H1.503L1.111 10.674H0.011L1.824 6.43995H3.327L5.048 10.447V6.43995H6.699L8.023 9.31095L9.24 6.43995H10.925V10.672H9.885L9.883 7.35995L8.416 10.673H7.528L6.057 7.35495V10.673L6.056 10.674ZM2.552 7.15795L1.863 8.84595H3.245L2.552 7.15795ZM21.44 10.673H20.408V6.43995H21.441V10.672L21.44 10.673ZM15.054 10.673H11.68V6.43995H15.06V7.31995H12.692V8.08295H15.003V8.95195H12.69V9.79795H15.058V10.672L15.054 10.673Z" fill="black"/>
</g>
<defs>
<clipPath id="clip0_15_261">
<rect width="36" height="24" fill="white"/>
</clipPath>
</defs>
</svg>
