<svg width="45" height="26" viewBox="0 0 45 26" fill="none" xmlns="http://www.w3.org/2000/svg">
<path d="M2.0939 0.193155C0.937845 0.193155 0 1.02237 0 2.0455V23.3408C0 24.3637 0.93798 25.1931 2.0939 25.1931H42.9062C44.0622 25.1931 45.0001 24.3639 45.0001 23.3408V2.04546C45.0001 1.02249 44.0621 0.193115 42.9062 0.193115H2.09385L2.0939 0.193155ZM14.7558 3.20247C17.3244 3.20247 19.6835 3.99303 21.5353 5.31357C19.9773 6.54681 18.8152 8.16707 18.2419 10.0036H19.1405C19.6697 8.48852 20.631 7.13964 21.8981 6.06994C23.1652 7.13964 24.1265 8.48852 24.6558 10.0036H25.5685C24.9872 8.17674 23.8235 6.56615 22.2666 5.34096C24.1219 4.00366 26.4903 3.20243 29.07 3.20243C35.0231 3.20243 39.8489 7.47201 39.8489 12.7392C39.8489 18.0063 35.0231 22.2759 29.07 22.2759C26.4474 22.2759 24.0426 21.4478 22.1738 20.0702C23.8455 18.7836 25.078 17.0588 25.6416 15.0966H24.7626C24.2622 16.7435 23.2549 18.2083 21.8981 19.3537C20.5413 18.2083 19.5355 16.7435 19.035 15.0966H18.1982C18.7651 17.0303 19.9815 18.731 21.6281 20.0055C19.7627 21.3661 17.3673 22.1838 14.7557 22.1838C8.80268 22.1838 3.97688 17.9348 3.97688 12.6931C3.97688 7.4515 8.80268 3.20247 14.7558 3.20247ZM28.2614 9.90652C26.9663 9.90652 25.7063 10.9082 25.7063 12.7889C25.7063 14.036 26.3868 14.859 27.7256 14.859C28.1042 14.8591 28.7072 14.7222 28.7072 14.7222L28.9069 13.6324C28.9069 13.6324 28.3565 13.8787 27.9788 13.8787C27.1829 13.8787 26.8636 13.3372 26.8636 12.7554C26.8636 11.5749 27.5483 10.9253 28.3106 10.9253C28.8823 10.9253 29.3414 11.2115 29.3414 11.2115L29.5242 10.1516C29.5242 10.1516 28.8446 9.90652 28.2614 9.90652H28.2614ZM39.15 9.99859L38.0236 10.0011L37.7817 11.3123C37.7817 11.3123 37.3583 10.8034 36.6961 10.8034C35.6665 10.8034 34.8089 11.8855 34.8089 13.1298C34.8089 13.933 35.2653 14.7209 36.2011 14.7209C36.8742 14.7209 37.2474 14.3116 37.2474 14.3116L37.1981 14.6612H38.2922L39.15 9.99859ZM6.88779 10.0122L5.99063 14.686H7.07202L7.75548 11.1618L7.85673 14.686H8.63015L10.073 11.1618L9.43313 14.686H10.582L11.468 10.0122H9.69048L8.58375 12.8797L8.52611 10.0123H6.88784L6.88779 10.0122ZM18.1856 10.3158C18.1612 10.3375 17.5317 13.5485 17.5317 13.9396C17.5317 14.5187 17.8986 14.7773 18.4149 14.7731C18.7848 14.7704 19.0712 14.6882 19.2038 14.6537C19.2176 14.6504 19.2445 14.6438 19.2445 14.6438L19.3838 13.8078C19.3081 13.8078 19.1966 13.8364 19.0983 13.8364C18.7129 13.8364 18.6701 13.655 18.6947 13.5204L19.0055 11.8149H19.5919L19.7339 10.8905H19.1813L19.2938 10.3158H18.1856ZM31.2567 10.7861C30.502 10.7861 29.9236 11.0062 29.9236 11.0062L29.7633 11.8646C29.7633 11.8646 30.241 11.6892 30.9628 11.6892C31.3727 11.6892 31.6729 11.7307 31.6729 12.0325C31.6729 12.2159 31.6364 12.2839 31.6364 12.2839C31.6364 12.2839 31.3123 12.259 31.1625 12.259C30.2107 12.259 29.2106 12.628 29.2106 13.7381C29.2106 14.6128 29.8671 14.813 30.2738 14.813C31.0504 14.813 31.3853 14.3565 31.403 14.3552L31.3664 14.7358H32.3353L32.7685 11.989C32.7686 10.8235 31.6464 10.786 31.2567 10.786V10.7861ZM13.0809 10.791C12.3234 10.791 11.7422 11.0112 11.7422 11.0112L11.5819 11.8696C11.5819 11.8696 12.0611 11.6942 12.7856 11.6942C13.197 11.6942 13.4986 11.7358 13.4986 12.0375C13.4986 12.2208 13.462 12.2888 13.462 12.2888C13.462 12.2888 13.137 12.264 12.9867 12.264C12.0312 12.264 11.0278 12.6324 11.0278 13.7419C11.0278 14.6161 11.6856 14.8167 12.0938 14.8167C12.8732 14.8167 13.2093 14.3603 13.2272 14.3589L13.1906 14.7395H14.1638L14.5983 11.994C14.5983 10.8292 13.4721 10.791 13.0809 10.791V10.791ZM16.5178 10.791C15.7043 10.791 14.8781 11.0815 14.8781 12.0736C14.8781 13.1978 16.2549 13.0842 16.2549 13.5577C16.2549 13.8738 15.8707 13.8999 15.5742 13.8999C15.0612 13.8999 14.5999 13.7431 14.5983 13.7506L14.4506 14.6089C14.4772 14.6162 14.7628 14.7296 15.6853 14.7296C15.933 14.7296 17.3489 14.7853 17.3489 13.4806C17.3489 12.2609 16.0383 12.5027 16.0383 12.0126C16.0383 11.7687 16.2511 11.6917 16.6415 11.6917C16.7966 11.6917 17.3939 11.7353 17.3939 11.7353L17.5317 10.8681C17.5317 10.8683 17.1463 10.791 16.5178 10.791H16.5178ZM21.6028 10.791C20.4724 10.7912 19.6355 11.8665 19.6355 13.0813C19.6355 14.4833 20.6841 14.8167 21.5775 14.8167C22.4022 14.8167 22.7658 14.6537 22.7658 14.6537L22.9627 13.6971C22.9627 13.6971 22.3353 13.9409 21.7688 13.9409C20.5616 13.9409 20.7731 13.146 20.7731 13.146H23.0583C23.0583 13.146 23.206 12.5035 23.206 12.2415C23.206 11.5879 22.8372 10.791 21.6028 10.791H21.6028ZM25.6964 10.8321C25.1872 10.8321 24.809 11.4379 24.809 11.4379L24.9103 10.8818H23.8528L23.1427 14.7209H24.3113C24.6422 13.0815 24.7027 11.7503 25.4925 11.994C25.6307 11.3595 25.7649 11.1143 25.9158 10.8458C25.9158 10.8458 25.8449 10.8321 25.6964 10.8321H25.6964ZM35.1647 10.8321C34.6555 10.8321 34.2774 11.4379 34.2774 11.4379L34.3786 10.8818H33.3211L32.6109 14.7209H33.7781C34.1092 13.0815 34.1712 11.7503 34.9608 11.994C35.0993 11.3595 35.2333 11.1143 35.3841 10.8458C35.3841 10.8458 35.3132 10.8321 35.1647 10.8321H35.1647ZM21.5972 11.6569C22.2392 11.6569 22.1217 12.298 22.1217 12.3498H20.8575C20.8575 12.2836 20.9771 11.6569 21.5972 11.6569H21.5972ZM36.8733 11.7315C37.2819 11.7314 37.4921 11.9756 37.4921 12.5501C37.4921 13.0713 37.1949 13.768 36.5794 13.768C36.1709 13.768 35.9789 13.4695 35.9789 13.0017C35.9789 12.2366 36.3745 11.7315 36.8733 11.7315H36.8733ZM31.2581 13.0377C31.4248 13.0379 31.4593 13.0523 31.4874 13.0589C31.4833 13.0583 31.4826 13.059 31.4986 13.0614C31.5197 13.2323 31.3818 14.0342 30.7153 14.0342C30.3716 14.0342 30.2836 13.7925 30.2836 13.6498C30.2836 13.3716 30.4473 13.0377 31.2581 13.0377ZM13.0824 13.0415C13.2717 13.0417 13.2923 13.0604 13.3242 13.0651C13.3454 13.236 13.207 14.0367 12.5381 14.0367C12.1931 14.0367 12.1036 13.7961 12.1036 13.6535C12.1036 13.3755 12.2683 13.0415 13.0824 13.0415Z" fill="#151515"/>
</svg>
