<svg width="45" height="45" viewBox="0 0 45 45" fill="none" xmlns="http://www.w3.org/2000/svg">
<g clip-path="url(#clip0_15_263)">
<path d="M27.3366 22.5002C27.3366 23.2502 27.1142 23.9834 26.6976 24.6071C26.281 25.2308 25.6888 25.717 24.9959 26.0042C24.303 26.2914 23.5405 26.3667 22.8048 26.2207C22.0692 26.0746 21.3933 25.7137 20.8627 25.1836C20.332 24.6535 19.9705 23.978 19.8237 23.2425C19.6769 22.5069 19.7515 21.7444 20.038 21.0512C20.3245 20.358 20.8101 19.7654 21.4334 19.3481C22.0567 18.9309 22.7897 18.7078 23.5397 18.707H23.5435C25.6397 18.707 27.3366 20.4058 27.3366 22.5002ZM17.5866 18.7483C15.4791 18.7483 13.7897 20.4058 13.7897 22.4795C13.7897 24.5758 15.436 26.1995 17.5529 26.1995C18.151 26.1995 18.6647 26.0814 19.2966 25.7852V24.1483C18.7416 24.7052 18.2485 24.9283 17.6185 24.9283C16.2178 24.9283 15.2241 23.912 15.2241 22.4683C15.2241 21.0995 16.2497 20.0195 17.5547 20.0195C18.2185 20.0195 18.721 20.2558 19.2985 20.822V19.1852C18.7736 18.898 18.1849 18.7477 17.5866 18.7483ZM11.3016 21.6452C10.4672 21.3358 10.2216 21.1333 10.2216 20.747C10.2216 20.2989 10.6585 19.9558 11.2585 19.9558C11.6747 19.9558 12.0179 20.1264 12.3797 20.5333L13.1072 19.5808C12.5309 19.0672 11.7848 18.7853 11.0129 18.7895C9.75098 18.7895 8.7891 19.6652 8.7891 20.8314C8.7891 21.8139 9.23723 22.3164 10.5441 22.787C11.0897 22.9802 11.3654 23.1077 11.506 23.1939C11.6336 23.2702 11.7391 23.3785 11.8121 23.508C11.8851 23.6376 11.9231 23.784 11.9222 23.9327C11.9222 24.5102 11.4629 24.9377 10.8422 24.9377C10.1785 24.9377 9.6441 24.6058 9.32535 23.987L8.42723 24.8514C9.06848 25.7927 9.83723 26.2089 10.8966 26.2089C12.3422 26.2089 13.3547 25.247 13.3547 23.867C13.351 22.7364 12.8822 22.2245 11.3016 21.6452ZM44.9991 19.3127C44.9996 19.4565 44.943 19.5948 44.8418 19.697C44.7406 19.7993 44.603 19.8573 44.4591 19.8583C44.3874 19.8585 44.3163 19.8446 44.25 19.8173C44.1837 19.7899 44.1234 19.7497 44.0727 19.699C44.022 19.6483 43.9818 19.5881 43.9545 19.5218C43.9272 19.4554 43.9132 19.3844 43.9135 19.3127V19.307C43.9095 19.2331 43.9207 19.159 43.9464 19.0896C43.9721 19.0201 44.0117 18.9566 44.0628 18.9029C44.1139 18.8493 44.1755 18.8067 44.2436 18.7777C44.3118 18.7487 44.3852 18.7339 44.4593 18.7343C44.5334 18.7347 44.6066 18.7502 44.6744 18.7799C44.7423 18.8096 44.8034 18.8529 44.854 18.907C44.9045 18.9612 44.9435 19.0251 44.9684 19.0949C44.9934 19.1646 45.0038 19.2387 44.9991 19.3127ZM44.8885 19.3145C44.8895 19.2567 44.8791 19.1992 44.8578 19.1453C44.8366 19.0915 44.805 19.0424 44.7647 19.0007C44.7245 18.9591 44.6765 18.9259 44.6234 18.9028C44.5703 18.8797 44.5132 18.8674 44.4553 18.8664C44.3973 18.8669 44.3398 18.8789 44.2864 18.9018C44.233 18.9246 44.1846 18.9579 44.1442 18.9995C44.1037 19.0412 44.0719 19.0905 44.0507 19.1446C44.0294 19.1987 44.0191 19.2564 44.0204 19.3145C44.0204 19.562 44.2153 19.7627 44.4553 19.7627C44.5132 19.7617 44.5703 19.7493 44.6234 19.7263C44.6765 19.7032 44.7245 19.6699 44.7647 19.6283C44.805 19.5867 44.8366 19.5376 44.8578 19.4837C44.8791 19.4299 44.8895 19.3724 44.8885 19.3145ZM6.5091 26.0383H7.90035V18.9077H6.5091V26.0383ZM30.3253 23.6983L28.4241 18.9095H26.9053L29.9316 26.222H30.6797L33.7604 18.9095H32.2528L30.3253 23.6983ZM34.3866 26.0383H38.3316V24.8308H35.7779V22.9052H38.2379V21.6977H35.7779V20.1152H38.3316V18.9077H34.3866V26.0383ZM44.5285 19.3689L44.7347 19.6277H44.5528L44.3766 19.3839V19.6277H44.2266V19.0014H44.4272C44.5791 19.0014 44.6635 19.0689 44.6635 19.1945C44.6653 19.2808 44.6166 19.3445 44.5285 19.3689ZM44.5172 19.1964C44.5172 19.142 44.4779 19.1158 44.4047 19.1158H44.3785V19.2789H44.4047C44.4779 19.2789 44.5172 19.2527 44.5172 19.1964ZM42.2147 23.0345L44.4591 26.0383H42.7491L40.8235 23.1733H40.6416V26.0383H39.2522V18.9077H41.3147C42.9179 18.9077 43.8385 19.6783 43.8385 21.0133C43.8385 22.1064 43.261 22.8227 42.2147 23.0345ZM42.4078 21.0883C42.4078 20.3945 41.9372 20.0327 41.071 20.0327H40.6435V22.1927H41.0504C41.9372 22.1908 42.4078 21.8045 42.4078 21.0883ZM5.86973 22.4795C5.86709 23.0026 5.7499 23.5188 5.52639 23.9917C5.30287 24.4647 4.97847 24.8829 4.57598 25.217C3.8916 25.7852 3.1116 26.0402 2.0316 26.0402H0.000976562V18.9095H2.04285C4.2966 18.9095 5.86973 20.3739 5.86973 22.4795ZM4.43723 22.4683C4.43723 21.7858 4.14848 21.122 3.6666 20.6927C3.20723 20.2764 2.6616 20.1152 1.76348 20.1152H1.39035V24.8308H1.76348C2.6616 24.8308 3.22973 24.6583 3.6666 24.2645C4.1466 23.837 4.43723 23.1527 4.43723 22.4683Z" fill="black"/>
</g>
<defs>
<clipPath id="clip0_15_263">
<rect width="45" height="45" fill="white"/>
</clipPath>
</defs>
</svg>
