<svg width="241" height="273" viewBox="0 0 241 273" fill="none" xmlns="http://www.w3.org/2000/svg">
<path d="M99.4 210.168C75.208 210.168 56.296 205.08 42.664 194.904C29.032 184.536 22.216 170.136 22.216 151.704C22.216 139.8 25.192 129.528 31.144 120.888C37.288 112.248 45.352 106.104 55.336 102.456C46.888 98.232 40.072 92.088 34.888 84.024C29.896 75.768 27.4 66.456 27.4 56.088C27.4 38.808 33.832 25.272 46.696 15.48C59.752 5.68799 77.32 0.791994 99.4 0.791994C121.48 0.791994 139.048 5.68799 152.104 15.48C165.16 25.272 171.688 38.808 171.688 56.088C171.688 66.648 169.096 76.056 163.912 84.312C158.92 92.568 152.2 98.616 143.752 102.456C153.736 106.296 161.704 112.536 167.656 121.176C173.608 129.816 176.584 139.992 176.584 151.704C176.584 170.136 169.768 184.536 156.136 194.904C142.504 205.08 123.592 210.168 99.4 210.168ZM99.4 87.192C109.192 87.192 116.776 84.888 122.152 80.28C127.72 75.48 130.504 69.048 130.504 60.984C130.504 52.92 127.72 46.584 122.152 41.976C116.776 37.368 109.192 35.064 99.4 35.064C89.608 35.064 82.024 37.368 76.648 41.976C71.272 46.584 68.584 52.92 68.584 60.984C68.584 69.048 71.272 75.48 76.648 80.28C82.024 84.888 89.608 87.192 99.4 87.192ZM99.4 175.896C123.592 175.896 135.688 166.776 135.688 148.536C135.688 130.488 123.592 121.464 99.4 121.464C87.688 121.464 78.664 123.768 72.328 128.376C66.184 132.792 63.112 139.512 63.112 148.536C63.112 157.56 66.184 164.376 72.328 168.984C78.664 173.592 87.688 175.896 99.4 175.896Z" fill="#151515"/>
<path d="M237 187.133L205.704 199.485V191.293L227.72 183.293L205.704 175.229V169.597L227.848 161.533L205.704 153.533L205.704 145.789L237 158.076V165.053L216.84 172.669L237 180.157V187.133ZM237.64 120.331C237.64 123.872 236.979 126.923 235.656 129.483C234.333 132.043 232.456 134.027 230.024 135.435C227.592 136.8 224.712 137.483 221.384 137.483C218.141 137.483 215.304 136.822 212.872 135.499C210.44 134.134 208.541 132.278 207.176 129.931C205.768 127.542 205.064 124.832 205.064 121.803C205.064 117.366 206.472 113.867 209.288 111.307C212.104 108.704 215.944 107.403 220.808 107.403H223.176V129.803C228.765 129.206 231.56 126.006 231.56 120.203C231.56 118.454 231.304 116.704 230.792 114.955C230.237 113.206 229.384 111.606 228.232 110.155L233.608 107.915C234.845 109.408 235.827 111.286 236.552 113.547C237.277 115.808 237.64 118.07 237.64 120.331ZM210.504 121.483C210.504 123.83 211.229 125.728 212.68 127.179C214.131 128.63 216.093 129.504 218.568 129.803V114.059C215.965 114.23 213.981 114.955 212.616 116.235C211.208 117.472 210.504 119.222 210.504 121.483ZM237.64 79.5635C237.64 83.1048 236.979 86.1555 235.656 88.7155C234.333 91.2755 232.456 93.2595 230.024 94.6675C227.592 96.0328 224.712 96.7155 221.384 96.7155C218.141 96.7155 215.304 96.0542 212.872 94.7315C210.44 93.3662 208.541 91.5102 207.176 89.1635C205.768 86.7742 205.064 84.0648 205.064 81.0355C205.064 76.5982 206.472 73.0995 209.288 70.5395C212.104 67.9368 215.944 66.6355 220.808 66.6355H223.176L223.176 89.0355C228.765 88.4382 231.56 85.2382 231.56 79.4355C231.56 77.6862 231.304 75.9368 230.792 74.1875C230.237 72.4382 229.384 70.8382 228.232 69.3875L233.608 67.1475C234.845 68.6408 235.827 70.5182 236.552 72.7795C237.277 75.0408 237.64 77.3022 237.64 79.5635ZM210.504 80.7155C210.504 83.0622 211.229 84.9608 212.68 86.4115C214.131 87.8622 216.093 88.7368 218.568 89.0355V73.2915C215.965 73.4622 213.981 74.1875 212.616 75.4675C211.208 76.7048 210.504 78.4542 210.504 80.7155ZM237 54.22H191.88V46.22H219.016V46.092L205.704 33.484V23.82L220.68 38.028L237 22.924V32.716L223.048 46.092V46.22H237V54.22Z" fill="#FF612F"/>
<path d="M2.464 262V239.44H17.216V242.704H6.56V249.072H16.544V252.336H6.56V262H2.464ZM25.3065 262.32C21.4665 262.32 19.5465 260.165 19.5465 255.856V246.352H23.5465V255.92C23.5465 257.029 23.7705 257.851 24.2185 258.384C24.6665 258.917 25.3812 259.184 26.3625 259.184C27.4292 259.184 28.3038 258.821 28.9865 258.096C29.6692 257.349 30.0105 256.368 30.0105 255.152V246.352H34.0105V262H30.1065V259.664C29.0612 261.435 27.4612 262.32 25.3065 262.32ZM43.6138 262.32C41.7578 262.32 40.3818 261.819 39.4858 260.816C38.6111 259.792 38.1738 258.299 38.1738 256.336V239.44H42.1738V256.144C42.1738 258.064 42.9844 259.024 44.6058 259.024C44.8404 259.024 45.0751 259.013 45.3098 258.992C45.5444 258.971 45.7684 258.928 45.9818 258.864L45.9178 262.032C45.1498 262.224 44.3818 262.32 43.6138 262.32ZM53.8325 262.32C51.9765 262.32 50.6005 261.819 49.7045 260.816C48.8298 259.792 48.3925 258.299 48.3925 256.336V239.44H52.3925V256.144C52.3925 258.064 53.2032 259.024 54.8245 259.024C55.0592 259.024 55.2938 259.013 55.5285 258.992C55.7632 258.971 55.9872 258.928 56.2005 258.864L56.1365 262.032C55.3685 262.224 54.6005 262.32 53.8325 262.32ZM67.6203 262V239.44H77.4763C79.8443 239.44 81.6789 239.963 82.9803 241.008C84.2816 242.032 84.9323 243.461 84.9323 245.296C84.9323 246.512 84.6229 247.557 84.0043 248.432C83.3856 249.307 82.5323 249.947 81.4443 250.352C82.7243 250.715 83.7163 251.355 84.4203 252.272C85.1456 253.168 85.5083 254.309 85.5083 255.696C85.5083 257.701 84.8256 259.259 83.4603 260.368C82.1163 261.456 80.2389 262 77.8283 262H67.6203ZM71.5563 249.008H76.7723C79.5669 249.008 80.9643 247.931 80.9643 245.776C80.9643 243.621 79.5669 242.544 76.7723 242.544H71.5563V249.008ZM71.5563 258.896H77.3163C80.1323 258.896 81.5403 257.765 81.5403 255.504C81.5403 253.243 80.1323 252.112 77.3163 252.112H71.5563V258.896ZM96.4035 262.32C94.7822 262.32 93.3742 261.989 92.1795 261.328C90.9848 260.667 90.0568 259.728 89.3955 258.512C88.7342 257.275 88.4035 255.824 88.4035 254.16C88.4035 252.496 88.7342 251.056 89.3955 249.84C90.0568 248.624 90.9848 247.685 92.1795 247.024C93.3742 246.363 94.7822 246.032 96.4035 246.032C98.0248 246.032 99.4328 246.363 100.628 247.024C101.822 247.685 102.75 248.624 103.412 249.84C104.073 251.056 104.404 252.496 104.404 254.16C104.404 255.824 104.073 257.275 103.412 258.512C102.75 259.728 101.822 260.667 100.628 261.328C99.4328 261.989 98.0248 262.32 96.4035 262.32ZM96.4035 259.28C97.5982 259.28 98.5582 258.853 99.2835 258C100.009 257.125 100.372 255.845 100.372 254.16C100.372 252.453 100.009 251.184 99.2835 250.352C98.5582 249.499 97.5982 249.072 96.4035 249.072C95.2088 249.072 94.2488 249.499 93.5235 250.352C92.7982 251.184 92.4355 252.453 92.4355 254.16C92.4355 255.845 92.7982 257.125 93.5235 258C94.2488 258.853 95.2088 259.28 96.4035 259.28ZM113.721 262.32C112.356 262.32 111.15 261.989 110.105 261.328C109.081 260.667 108.281 259.728 107.705 258.512C107.129 257.275 106.841 255.824 106.841 254.16C106.841 252.475 107.129 251.035 107.705 249.84C108.281 248.624 109.081 247.685 110.105 247.024C111.15 246.363 112.356 246.032 113.721 246.032C114.83 246.032 115.833 246.277 116.729 246.768C117.625 247.259 118.297 247.909 118.745 248.72V239.44H122.745V262H118.841V259.408C118.414 260.304 117.742 261.019 116.825 261.552C115.908 262.064 114.873 262.32 113.721 262.32ZM114.841 259.28C116.036 259.28 116.996 258.853 117.721 258C118.446 257.125 118.809 255.845 118.809 254.16C118.809 252.453 118.446 251.184 117.721 250.352C116.996 249.499 116.036 249.072 114.841 249.072C113.646 249.072 112.686 249.499 111.961 250.352C111.236 251.184 110.873 252.453 110.873 254.16C110.873 255.845 111.236 257.125 111.961 258C112.686 258.853 113.646 259.28 114.841 259.28ZM128.301 267.76L131.181 261.36L124.684 246.352H128.941L133.325 257.296L137.805 246.352H141.837L132.429 267.76H128.301ZM160.521 262.32C158.751 262.32 157.108 262.096 155.593 261.648C154.079 261.179 152.799 260.549 151.753 259.76L153.001 256.528C154.047 257.275 155.188 257.851 156.425 258.256C157.684 258.661 159.049 258.864 160.521 258.864C162.207 258.864 163.433 258.587 164.201 258.032C164.969 257.456 165.353 256.72 165.353 255.824C165.353 255.077 165.076 254.491 164.521 254.064C163.988 253.637 163.06 253.285 161.737 253.008L158.217 252.272C154.207 251.419 152.201 249.36 152.201 246.096C152.201 244.688 152.575 243.461 153.321 242.416C154.068 241.371 155.103 240.56 156.425 239.984C157.748 239.408 159.273 239.12 161.001 239.12C162.537 239.12 163.977 239.355 165.321 239.824C166.665 240.272 167.785 240.912 168.681 241.744L167.433 244.816C165.663 243.323 163.508 242.576 160.969 242.576C159.497 242.576 158.345 242.885 157.513 243.504C156.681 244.123 156.265 244.933 156.265 245.936C156.265 246.704 156.521 247.323 157.033 247.792C157.545 248.24 158.42 248.592 159.657 248.848L163.145 249.584C165.257 250.032 166.825 250.736 167.849 251.696C168.895 252.656 169.417 253.936 169.417 255.536C169.417 256.88 169.055 258.064 168.329 259.088C167.604 260.112 166.569 260.912 165.225 261.488C163.903 262.043 162.335 262.32 160.521 262.32ZM172.549 262V239.44H176.549V248.624C177.082 247.771 177.797 247.131 178.693 246.704C179.589 246.256 180.581 246.032 181.669 246.032C185.359 246.032 187.205 248.176 187.205 252.464V262H183.205V252.656C183.205 251.44 182.97 250.555 182.501 250C182.053 249.445 181.349 249.168 180.389 249.168C179.215 249.168 178.277 249.541 177.573 250.288C176.89 251.013 176.549 251.984 176.549 253.2V262H172.549ZM191.268 262V246.352H195.172V249.104C195.94 247.248 197.582 246.224 200.1 246.032L201.316 245.936L201.572 249.328L199.268 249.552C196.644 249.808 195.332 251.152 195.332 253.584V262H191.268ZM211.261 262.32C209.49 262.32 207.965 261.989 206.685 261.328C205.405 260.667 204.413 259.728 203.709 258.512C203.026 257.296 202.685 255.856 202.685 254.192C202.685 252.571 203.015 251.152 203.677 249.936C204.359 248.72 205.287 247.771 206.461 247.088C207.655 246.384 209.01 246.032 210.525 246.032C212.743 246.032 214.493 246.736 215.773 248.144C217.074 249.552 217.725 251.472 217.725 253.904V255.088H206.525C206.823 257.883 208.423 259.28 211.325 259.28C212.199 259.28 213.074 259.152 213.949 258.896C214.823 258.619 215.623 258.192 216.349 257.616L217.469 260.304C216.722 260.923 215.783 261.413 214.653 261.776C213.522 262.139 212.391 262.32 211.261 262.32ZM210.685 248.752C209.511 248.752 208.562 249.115 207.837 249.84C207.111 250.565 206.674 251.547 206.525 252.784H214.397C214.311 251.483 213.949 250.491 213.309 249.808C212.69 249.104 211.815 248.752 210.685 248.752ZM226.909 262.32C225.543 262.32 224.338 261.989 223.293 261.328C222.269 260.667 221.469 259.728 220.893 258.512C220.317 257.275 220.029 255.824 220.029 254.16C220.029 252.475 220.317 251.035 220.893 249.84C221.469 248.624 222.269 247.685 223.293 247.024C224.338 246.363 225.543 246.032 226.909 246.032C228.018 246.032 229.021 246.277 229.917 246.768C230.813 247.259 231.485 247.909 231.933 248.72V239.44H235.933V262H232.029V259.408C231.602 260.304 230.93 261.019 230.013 261.552C229.095 262.064 228.061 262.32 226.909 262.32ZM228.029 259.28C229.223 259.28 230.183 258.853 230.909 258C231.634 257.125 231.997 255.845 231.997 254.16C231.997 252.453 231.634 251.184 230.909 250.352C230.183 249.499 229.223 249.072 228.029 249.072C226.834 249.072 225.874 249.499 225.149 250.352C224.423 251.184 224.061 252.453 224.061 254.16C224.061 255.845 224.423 257.125 225.149 258C225.874 258.853 226.834 259.28 228.029 259.28Z" fill="#242424"/>
</svg>
